<svg width="10" height="9" viewBox="0 0 10 9" fill="none" xmlns="http://www.w3.org/2000/svg">
<g clip-path="url(#clip0_179_59)">
<path d="M8.70287 6.33832V7.45438C8.70329 7.55799 8.68207 7.66054 8.64056 7.75548C8.59905 7.85041 8.53817 7.93562 8.46183 8.00567C8.38548 8.07571 8.29535 8.12904 8.1972 8.16223C8.09905 8.19542 7.99505 8.20775 7.89186 8.19842C6.74709 8.07404 5.64746 7.68286 4.68132 7.05632C3.78245 6.48514 3.02037 5.72306 2.44919 4.82419C1.82046 3.85366 1.42919 2.74868 1.30708 1.59876C1.29778 1.49589 1.31001 1.3922 1.34298 1.29431C1.37595 1.19642 1.42894 1.10646 1.49859 1.03017C1.56823 0.953883 1.65299 0.89293 1.74748 0.851194C1.84197 0.809458 1.94411 0.787853 2.0474 0.787756H3.16347C3.34401 0.785979 3.51904 0.849913 3.65594 0.96764C3.79283 1.08537 3.88224 1.24886 3.90751 1.42763C3.95462 1.7848 4.04198 2.13549 4.16793 2.47301C4.21798 2.60617 4.22881 2.75088 4.19914 2.89C4.16947 3.02913 4.10054 3.15683 4.00052 3.25798L3.52805 3.73045C4.05764 4.66182 4.82881 5.43298 5.76018 5.96257L6.23265 5.49011C6.33379 5.39008 6.4615 5.32115 6.60062 5.29148C6.73974 5.26181 6.88446 5.27264 7.01761 5.3227C7.35514 5.44865 7.70583 5.53601 8.06299 5.58311C8.24371 5.60861 8.40875 5.69963 8.52673 5.83888C8.64471 5.97812 8.7074 6.15587 8.70287 6.33832Z" fill="#666666"/>
</g>
<defs>
<clipPath id="clip0_179_59">
<rect width="8.92852" height="8.92852" fill="white" transform="translate(0.518402 0.0438232)"/>
</clipPath>
</defs>
</svg>
